<?xml version="1.0" encoding="UTF-8"?>
<svg xmlns="http://www.w3.org/2000/svg" xmlns:xlink="http://www.w3.org/1999/xlink" version="1.1" viewBox="0 0 576 720">
  <defs>
    <style>
      .cls-1, .cls-2, .cls-3, .cls-4 {
        fill: none;
      }

      .cls-5 {
        fill: #4d4d4d;
      }

      .cls-5, .cls-6, .cls-7, .cls-8, .cls-9 {
        isolation: isolate;
      }

      .cls-5, .cls-6, .cls-8, .cls-9 {
        font-family: ArialMT, Arial;
      }

      .cls-5, .cls-7 {
        font-size: 10.4px;
      }

      .cls-6 {
        font-size: 9.1px;
      }

      .cls-2 {
        stroke: #7f7f7f;
        stroke-dasharray: 5.7 5.7;
      }

      .cls-2, .cls-3 {
        stroke-width: 1.1px;
      }

      .cls-2, .cls-3, .cls-10, .cls-4, .cls-11 {
        stroke-linejoin: round;
      }

      .cls-7 {
        fill: #1a1a1a;
        font-family: Arial-BoldMT, Arial;
        font-weight: 700;
      }

      .cls-8 {
        font-size: 13px;
      }

      .cls-12 {
        letter-spacing: .6em;
      }

      .cls-3, .cls-10 {
        stroke: #000;
      }

      .cls-13 {
        clip-path: url(#clippath-17);
      }

      .cls-14 {
        clip-path: url(#clippath-19);
      }

      .cls-15 {
        clip-path: url(#clippath-11);
      }

      .cls-16 {
        clip-path: url(#clippath-15);
      }

      .cls-17 {
        clip-path: url(#clippath-13);
      }

      .cls-18 {
        clip-path: url(#clippath-31);
      }

      .cls-19 {
        clip-path: url(#clippath-32);
      }

      .cls-20 {
        clip-path: url(#clippath-27);
      }

      .cls-21 {
        clip-path: url(#clippath-29);
      }

      .cls-22 {
        clip-path: url(#clippath-21);
      }

      .cls-23 {
        clip-path: url(#clippath-23);
      }

      .cls-24 {
        clip-path: url(#clippath-25);
      }

      .cls-25 {
        clip-path: url(#clippath-1);
      }

      .cls-26 {
        clip-path: url(#clippath-3);
      }

      .cls-27 {
        clip-path: url(#clippath-7);
      }

      .cls-28 {
        clip-path: url(#clippath-9);
      }

      .cls-29 {
        clip-path: url(#clippath-5);
      }

      .cls-9 {
        font-size: 15.6px;
      }

      .cls-10, .cls-11 {
        stroke-linecap: round;
        stroke-width: .7px;
      }

      .cls-4 {
        stroke: #ebebeb;
        stroke-width: 1.3px;
      }

      .cls-11 {
        stroke: #fff;
      }
    </style>
    <clipPath id="clippath-1">
      <rect class="cls-1" x="105.6" y="27.4" width="463.3" height="69.3"/>
    </clipPath>
    <clipPath id="clippath-3">
      <rect class="cls-1" x="106.3" y="111.1" width="463.3" height="69.3"/>
    </clipPath>
    <clipPath id="clippath-5">
      <rect class="cls-1" x="106.3" y="194.8" width="463.3" height="69.3"/>
    </clipPath>
    <clipPath id="clippath-7">
      <rect class="cls-1" x="106.3" y="278.6" width="463.3" height="69.3"/>
    </clipPath>
    <clipPath id="clippath-9">
      <rect class="cls-1" x="106.3" y="362.3" width="463.3" height="69.3"/>
    </clipPath>
    <clipPath id="clippath-11">
      <rect class="cls-1" x="106.3" y="446" width="463.3" height="69.3"/>
    </clipPath>
    <clipPath id="clippath-13">
      <rect class="cls-1" x="106.3" y="529.7" width="463.3" height="69.3"/>
    </clipPath>
    <clipPath id="clippath-15">
      <rect class="cls-1" x="106.3" y="613.5" width="463.3" height="69.3"/>
    </clipPath>
    <clipPath id="clippath-17">
      <rect class="cls-1" x="86.3" y="27.4" width="20" height="69.3"/>
    </clipPath>
    <clipPath id="clippath-19">
      <rect class="cls-1" x="86.3" y="111.1" width="20" height="69.3"/>
    </clipPath>
    <clipPath id="clippath-21">
      <rect class="cls-1" x="86.3" y="194.8" width="20" height="69.3"/>
    </clipPath>
    <clipPath id="clippath-23">
      <rect class="cls-1" x="86.3" y="278.6" width="20" height="69.3"/>
    </clipPath>
    <clipPath id="clippath-25">
      <rect class="cls-1" x="86.3" y="362.3" width="20" height="69.3"/>
    </clipPath>
    <clipPath id="clippath-27">
      <rect class="cls-1" x="86.3" y="446" width="20" height="69.3"/>
    </clipPath>
    <clipPath id="clippath-29">
      <rect class="cls-1" x="86.3" y="529.7" width="20" height="69.3"/>
    </clipPath>
    <clipPath id="clippath-31">
      <rect class="cls-1" x="86.3" y="613.5" width="20" height="69.3"/>
    </clipPath>
    <clipPath id="clippath-32">
      <rect class="cls-1" width="576" height="720"/>
    </clipPath>
  </defs>
  <!-- Generator: Adobe Illustrator 28.6.0, SVG Export Plug-In . SVG Version: 1.2.0 Build 709)  -->
  <g>
    <g id="Layer_1">
      <rect class="cls-1" width="576" height="720"/>
      <g class="cls-25">
        <g>
          <circle class="cls-11" cx="280.8" cy="86.8" r="3.6"/>
          <circle class="cls-10" cx="343.5" cy="70.3" r="3.6"/>
          <circle class="cls-10" cx="331.7" cy="53.8" r="3.6"/>
          <circle class="cls-10" cx="327.5" cy="37.3" r="3.6"/>
          <line class="cls-3" x1="280.8" y1="88.5" x2="280.8" y2="85.2"/>
          <line class="cls-3" x1="280.8" y1="86.8" x2="280.8" y2="86.8"/>
          <line class="cls-3" x1="280.8" y1="88.5" x2="280.8" y2="85.2"/>
          <line class="cls-3" x1="351.1" y1="72" x2="351.1" y2="68.7"/>
          <line class="cls-3" x1="351.1" y1="70.3" x2="336" y2="70.3"/>
          <line class="cls-3" x1="336" y1="72" x2="336" y2="68.7"/>
          <line class="cls-3" x1="343.8" y1="55.5" x2="343.8" y2="52.2"/>
          <line class="cls-3" x1="343.8" y1="53.8" x2="319.6" y2="53.8"/>
          <line class="cls-3" x1="319.6" y1="55.5" x2="319.6" y2="52.2"/>
          <line class="cls-3" x1="344.5" y1="39" x2="344.5" y2="35.6"/>
          <line class="cls-3" x1="344.5" y1="37.3" x2="310.4" y2="37.3"/>
          <line class="cls-3" x1="310.4" y1="39" x2="310.4" y2="35.6"/>
          <text class="cls-6" transform="translate(282.4 90.1)"><tspan x="0" y="0">Ref.</tspan></text>
          <text class="cls-6" transform="translate(471.9 72.7)"><tspan x="0" y="0">RR = 1.79 [1.67–1.91]</tspan></text>
          <text class="cls-6" transform="translate(471.9 57.9)"><tspan x="0" y="0">RR = 1.60 [1.43–1.79]</tspan></text>
          <text class="cls-6" transform="translate(471.9 41.4)"><tspan x="0" y="0">RR = 1.54 [1.32–1.80]</tspan></text>
          <line class="cls-2" x1="280.8" y1="96.7" x2="280.8" y2="27.4"/>
        </g>
      </g>
      <g class="cls-26">
        <circle class="cls-11" cx="276.7" cy="170.5" r="3.6"/>
        <circle class="cls-10" cx="332.3" cy="154" r="3.6"/>
        <circle class="cls-10" cx="307.1" cy="137.5" r="3.6"/>
        <circle class="cls-10" cx="295.3" cy="121" r="3.6"/>
        <line class="cls-3" x1="276.7" y1="172.2" x2="276.7" y2="168.9"/>
        <line class="cls-3" x1="276.7" y1="170.5" x2="276.7" y2="170.5"/>
        <line class="cls-3" x1="276.7" y1="172.2" x2="276.7" y2="168.9"/>
        <line class="cls-3" x1="350.6" y1="155.7" x2="350.6" y2="152.4"/>
        <line class="cls-3" x1="350.6" y1="154" x2="314.1" y2="154"/>
        <line class="cls-3" x1="314.1" y1="155.7" x2="314.1" y2="152.4"/>
        <line class="cls-3" x1="336.6" y1="139.2" x2="336.6" y2="135.9"/>
        <line class="cls-3" x1="336.6" y1="137.5" x2="277.6" y2="137.5"/>
        <line class="cls-3" x1="277.6" y1="139.2" x2="277.6" y2="135.9"/>
        <line class="cls-3" x1="336.6" y1="122.7" x2="336.6" y2="119.4"/>
        <line class="cls-3" x1="336.6" y1="121" x2="253.9" y2="121"/>
        <line class="cls-3" x1="253.9" y1="122.7" x2="253.9" y2="119.4"/>
        <text class="cls-6" transform="translate(278.4 173.8)"><tspan x="0" y="0">Ref.</tspan></text>
        <text class="cls-6" transform="translate(471.9 159.7)"><tspan x="0" y="0">RR = 1.67 [1.41–1.98]</tspan></text>
        <text class="cls-6" transform="translate(472.7 143.2)"><tspan x="0" y="0">RR = 1.32 [1.01–1.74]</tspan></text>
        <text class="cls-6" transform="translate(472.7 124.2)"><tspan x="0" y="0">RR = 1.19 [0.81–1.74]</tspan></text>
        <line class="cls-2" x1="276.7" y1="180.4" x2="276.7" y2="111.1"/>
      </g>
      <g class="cls-29">
        <circle class="cls-11" cx="276.7" cy="254.3" r="3.6"/>
        <circle class="cls-10" cx="396" cy="237.8" r="3.6"/>
        <circle class="cls-10" cx="391.9" cy="221.3" r="3.6"/>
        <circle class="cls-10" cx="407.7" cy="204.8" r="3.6"/>
        <line class="cls-3" x1="276.7" y1="255.9" x2="276.7" y2="252.6"/>
        <line class="cls-3" x1="276.7" y1="254.3" x2="276.7" y2="254.3"/>
        <line class="cls-3" x1="276.7" y1="255.9" x2="276.7" y2="252.6"/>
        <line class="cls-3" x1="409.5" y1="239.4" x2="409.5" y2="236.1"/>
        <line class="cls-3" x1="409.5" y1="237.8" x2="382.6" y2="237.8"/>
        <line class="cls-3" x1="382.6" y1="239.4" x2="382.6" y2="236.1"/>
        <line class="cls-3" x1="413.4" y1="222.9" x2="413.4" y2="219.6"/>
        <line class="cls-3" x1="413.4" y1="221.3" x2="370.4" y2="221.3"/>
        <line class="cls-3" x1="370.4" y1="222.9" x2="370.4" y2="219.6"/>
        <line class="cls-3" x1="438.1" y1="206.4" x2="438.1" y2="203.1"/>
        <line class="cls-3" x1="438.1" y1="204.8" x2="377.3" y2="204.8"/>
        <line class="cls-3" x1="377.3" y1="206.4" x2="377.3" y2="203.1"/>
        <text class="cls-6" transform="translate(278.4 257.5)"><tspan x="0" y="0">Ref.</tspan></text>
        <text class="cls-6" transform="translate(473.4 241.7)"><tspan x="0" y="0">RR = 3.01 [2.66–3.41]</tspan></text>
        <text class="cls-6" transform="translate(471.9 222)"><tspan x="0" y="0">RR = 2.90 [2.38–3.54]</tspan></text>
        <text class="cls-6" transform="translate(471.9 205.5)"><tspan x="0" y="0">RR = 3.35 [2.53–4.44]</tspan></text>
        <line class="cls-2" x1="276.7" y1="264.2" x2="276.7" y2="194.9"/>
      </g>
      <g class="cls-27">
        <circle class="cls-11" cx="276.7" cy="338" r="3.6"/>
        <circle class="cls-10" cx="309.6" cy="321.5" r="3.6"/>
        <circle class="cls-10" cx="271.1" cy="305" r="3.6"/>
        <circle class="cls-10" cx="179.2" cy="288.5" r="3.6"/>
        <line class="cls-3" x1="276.7" y1="339.6" x2="276.7" y2="336.3"/>
        <line class="cls-3" x1="276.7" y1="338" x2="276.7" y2="338"/>
        <line class="cls-3" x1="276.7" y1="339.6" x2="276.7" y2="336.3"/>
        <line class="cls-3" x1="339" y1="323.1" x2="339" y2="319.8"/>
        <line class="cls-3" x1="339" y1="321.5" x2="280.2" y2="321.5"/>
        <line class="cls-3" x1="280.2" y1="323.1" x2="280.2" y2="319.8"/>
        <line class="cls-3" x1="319.1" y1="306.6" x2="319.1" y2="303.3"/>
        <line class="cls-3" x1="319.1" y1="305" x2="223.2" y2="305"/>
        <line class="cls-3" x1="223.2" y1="306.6" x2="223.2" y2="303.3"/>
        <line class="cls-3" x1="248.9" y1="290.1" x2="248.9" y2="286.8"/>
        <line class="cls-3" x1="248.9" y1="288.5" x2="109.6" y2="288.5"/>
        <line class="cls-3" x1="109.6" y1="290.1" x2="109.6" y2="286.8"/>
        <text class="cls-6" transform="translate(278.4 341.2)"><tspan x="0" y="0">Ref.</tspan></text>
        <text class="cls-6" transform="translate(474.8 322.2)"><tspan x="0" y="0">RR = 1.36 [1.03–1.78]</tspan></text>
        <text class="cls-6" transform="translate(474.8 305.7)"><tspan x="0" y="0">RR = 0.95 [0.61–1.48]</tspan></text>
        <text class="cls-6" transform="translate(474.1 289.2)"><tspan x="0" y="0">RR = 0.41 [0.21–0.77]</tspan></text>
        <line class="cls-2" x1="276.7" y1="347.9" x2="276.7" y2="278.6"/>
      </g>
      <g class="cls-28">
        <g>
          <line class="cls-4" x1="106.3" y1="421.7" x2="569.5" y2="421.7"/>
          <line class="cls-4" x1="106.3" y1="405.2" x2="569.5" y2="405.2"/>
          <line class="cls-4" x1="106.3" y1="388.7" x2="569.5" y2="388.7"/>
          <line class="cls-4" x1="106.3" y1="372.2" x2="569.5" y2="372.2"/>
          <line class="cls-4" x1="201.7" y1="431.6" x2="201.7" y2="362.3"/>
          <line class="cls-4" x1="276.7" y1="431.6" x2="276.7" y2="362.3"/>
          <line class="cls-4" x1="351.7" y1="431.6" x2="351.7" y2="362.3"/>
          <line class="cls-4" x1="426.7" y1="431.6" x2="426.7" y2="362.3"/>
          <line class="cls-4" x1="501.8" y1="431.6" x2="501.8" y2="362.3"/>
          <circle class="cls-11" cx="276.7" cy="421.7" r="3.6"/>
          <circle class="cls-10" cx="374.3" cy="405.2" r="3.6"/>
          <circle class="cls-10" cx="386.7" cy="388.7" r="3.6"/>
          <circle class="cls-10" cx="385.5" cy="372.2" r="3.6"/>
          <line class="cls-3" x1="276.7" y1="423.4" x2="276.7" y2="420.1"/>
          <line class="cls-3" x1="276.7" y1="421.7" x2="276.7" y2="421.7"/>
          <line class="cls-3" x1="276.7" y1="423.4" x2="276.7" y2="420.1"/>
          <line class="cls-3" x1="380.1" y1="406.9" x2="380.1" y2="403.6"/>
          <line class="cls-3" x1="380.1" y1="405.2" x2="368.5" y2="405.2"/>
          <line class="cls-3" x1="368.5" y1="406.9" x2="368.5" y2="403.6"/>
          <line class="cls-3" x1="395.5" y1="390.4" x2="395.5" y2="387"/>
          <line class="cls-3" x1="395.5" y1="388.7" x2="377.8" y2="388.7"/>
          <line class="cls-3" x1="377.8" y1="390.4" x2="377.8" y2="387"/>
          <line class="cls-3" x1="398" y1="373.9" x2="398" y2="370.5"/>
          <line class="cls-3" x1="398" y1="372.2" x2="372.9" y2="372.2"/>
          <line class="cls-3" x1="372.9" y1="373.9" x2="372.9" y2="370.5"/>
          <text class="cls-6" transform="translate(278.4 425)"><tspan x="0" y="0">Ref.</tspan></text>
          <text class="cls-6" transform="translate(383.2 408.5)"><tspan x="0" y="0">RR = 2.46 [2.34–2.60]</tspan></text>
          <text class="cls-6" transform="translate(395.6 392)"><tspan x="0" y="0">RR = 2.76 [2.55–3.00]</tspan></text>
          <text class="cls-6" transform="translate(394.4 375.4)"><tspan x="0" y="0">RR = 2.73 [2.43–3.07]</tspan></text>
          <line class="cls-2" x1="276.7" y1="431.6" x2="276.7" y2="362.3"/>
        </g>
      </g>
      <g class="cls-15">
        <g>
          <line class="cls-4" x1="106.3" y1="505.4" x2="569.5" y2="505.4"/>
          <line class="cls-4" x1="106.3" y1="488.9" x2="569.5" y2="488.9"/>
          <line class="cls-4" x1="106.3" y1="472.4" x2="569.5" y2="472.4"/>
          <line class="cls-4" x1="106.3" y1="455.9" x2="569.5" y2="455.9"/>
          <line class="cls-4" x1="201.7" y1="515.3" x2="201.7" y2="446"/>
          <line class="cls-4" x1="276.7" y1="515.3" x2="276.7" y2="446"/>
          <line class="cls-4" x1="351.7" y1="515.3" x2="351.7" y2="446"/>
          <line class="cls-4" x1="426.7" y1="515.3" x2="426.7" y2="446"/>
          <line class="cls-4" x1="501.8" y1="515.3" x2="501.8" y2="446"/>
          <circle class="cls-11" cx="276.7" cy="505.4" r="3.6"/>
          <circle class="cls-10" cx="396.9" cy="488.9" r="3.6"/>
          <circle class="cls-10" cx="400.5" cy="472.4" r="3.6"/>
          <circle class="cls-10" cx="404.6" cy="455.9" r="3.6"/>
          <line class="cls-3" x1="276.7" y1="507.1" x2="276.7" y2="503.8"/>
          <line class="cls-3" x1="276.7" y1="505.4" x2="276.7" y2="505.4"/>
          <line class="cls-3" x1="276.7" y1="507.1" x2="276.7" y2="503.8"/>
          <line class="cls-3" x1="402" y1="490.6" x2="402" y2="487.3"/>
          <line class="cls-3" x1="402" y1="488.9" x2="391.7" y2="488.9"/>
          <line class="cls-3" x1="391.7" y1="490.6" x2="391.7" y2="487.3"/>
          <line class="cls-3" x1="408.3" y1="474.1" x2="408.3" y2="470.8"/>
          <line class="cls-3" x1="408.3" y1="472.4" x2="392.7" y2="472.4"/>
          <line class="cls-3" x1="392.7" y1="474.1" x2="392.7" y2="470.8"/>
          <line class="cls-3" x1="415.6" y1="457.6" x2="415.6" y2="454.3"/>
          <line class="cls-3" x1="415.6" y1="455.9" x2="393.5" y2="455.9"/>
          <line class="cls-3" x1="393.5" y1="457.6" x2="393.5" y2="454.3"/>
          <text class="cls-6" transform="translate(278.4 508.7)"><tspan x="0" y="0">Ref.</tspan></text>
          <text class="cls-6" transform="translate(405.8 492.2)"><tspan x="0" y="0">RR = 3.04 [2.89–3.18]</tspan></text>
          <text class="cls-6" transform="translate(409.4 475.7)"><tspan x="0" y="0">RR = 3.14 [2.92–3.37]</tspan></text>
          <text class="cls-6" transform="translate(413.5 459.2)"><tspan x="0" y="0">RR = 3.26 [2.94–3.61]</tspan></text>
          <line class="cls-2" x1="276.7" y1="515.3" x2="276.7" y2="446"/>
        </g>
      </g>
      <g class="cls-17">
        <g>
          <line class="cls-4" x1="106.3" y1="589.2" x2="569.5" y2="589.2"/>
          <line class="cls-4" x1="106.3" y1="572.7" x2="569.5" y2="572.7"/>
          <line class="cls-4" x1="106.3" y1="556.2" x2="569.5" y2="556.2"/>
          <line class="cls-4" x1="106.3" y1="539.6" x2="569.5" y2="539.6"/>
          <line class="cls-4" x1="201.7" y1="599.1" x2="201.7" y2="529.7"/>
          <line class="cls-4" x1="276.7" y1="599.1" x2="276.7" y2="529.7"/>
          <line class="cls-4" x1="351.7" y1="599.1" x2="351.7" y2="529.7"/>
          <line class="cls-4" x1="426.7" y1="599.1" x2="426.7" y2="529.7"/>
          <line class="cls-4" x1="501.8" y1="599.1" x2="501.8" y2="529.7"/>
          <circle class="cls-11" cx="276.7" cy="589.2" r="3.6"/>
          <circle class="cls-10" cx="339" cy="572.7" r="3.6"/>
          <circle class="cls-10" cx="343.7" cy="556.2" r="3.6"/>
          <circle class="cls-10" cx="346.8" cy="539.6" r="3.6"/>
          <line class="cls-3" x1="276.7" y1="590.8" x2="276.7" y2="587.5"/>
          <line class="cls-3" x1="276.7" y1="589.2" x2="276.7" y2="589.2"/>
          <line class="cls-3" x1="276.7" y1="590.8" x2="276.7" y2="587.5"/>
          <line class="cls-3" x1="347.1" y1="574.3" x2="347.1" y2="571"/>
          <line class="cls-3" x1="347.1" y1="572.7" x2="330.8" y2="572.7"/>
          <line class="cls-3" x1="330.8" y1="574.3" x2="330.8" y2="571"/>
          <line class="cls-3" x1="356.4" y1="557.8" x2="356.4" y2="554.5"/>
          <line class="cls-3" x1="356.4" y1="556.2" x2="331.1" y2="556.2"/>
          <line class="cls-3" x1="331.1" y1="557.8" x2="331.1" y2="554.5"/>
          <line class="cls-3" x1="365" y1="541.3" x2="365" y2="538"/>
          <line class="cls-3" x1="365" y1="539.6" x2="328.5" y2="539.6"/>
          <line class="cls-3" x1="328.5" y1="541.3" x2="328.5" y2="538"/>
          <text class="cls-6" transform="translate(278.4 592.4)"><tspan x="0" y="0">Ref.</tspan></text>
          <text class="cls-6" transform="translate(347.9 575.9)"><tspan x="0" y="0">RR = 1.78 [1.65–1.92]</tspan></text>
          <text class="cls-6" transform="translate(352.6 559.4)"><tspan x="0" y="0">RR = 1.86 [1.65–2.09]</tspan></text>
          <text class="cls-6" transform="translate(355.7 542.9)"><tspan x="0" y="0">RR = 1.91 [1.61–2.26]</tspan></text>
          <line class="cls-2" x1="276.7" y1="599.1" x2="276.7" y2="529.7"/>
        </g>
      </g>
      <g class="cls-16">
        <g>
          <line class="cls-4" x1="106.3" y1="672.9" x2="569.5" y2="672.9"/>
          <line class="cls-4" x1="106.3" y1="656.4" x2="569.5" y2="656.4"/>
          <line class="cls-4" x1="106.3" y1="639.9" x2="569.5" y2="639.9"/>
          <line class="cls-4" x1="106.3" y1="623.4" x2="569.5" y2="623.4"/>
          <line class="cls-4" x1="201.7" y1="682.8" x2="201.7" y2="613.5"/>
          <line class="cls-4" x1="276.7" y1="682.8" x2="276.7" y2="613.5"/>
          <line class="cls-4" x1="351.7" y1="682.8" x2="351.7" y2="613.5"/>
          <line class="cls-4" x1="426.7" y1="682.8" x2="426.7" y2="613.5"/>
          <line class="cls-4" x1="501.8" y1="682.8" x2="501.8" y2="613.5"/>
          <circle class="cls-11" cx="276.7" cy="672.9" r="3.6"/>
          <circle class="cls-10" cx="293.2" cy="656.4" r="3.6"/>
          <circle class="cls-10" cx="269.4" cy="639.9" r="3.6"/>
          <circle class="cls-10" cx="256" cy="623.4" r="3.6"/>
          <line class="cls-3" x1="276.7" y1="674.5" x2="276.7" y2="671.2"/>
          <line class="cls-3" x1="276.7" y1="672.9" x2="276.7" y2="672.9"/>
          <line class="cls-3" x1="276.7" y1="674.5" x2="276.7" y2="671.2"/>
          <line class="cls-3" x1="321.4" y1="658" x2="321.4" y2="654.7"/>
          <line class="cls-3" x1="321.4" y1="656.4" x2="265" y2="656.4"/>
          <line class="cls-3" x1="265" y1="658" x2="265" y2="654.7"/>
          <line class="cls-3" x1="315.3" y1="641.5" x2="315.3" y2="638.2"/>
          <line class="cls-3" x1="315.3" y1="639.9" x2="223.4" y2="639.9"/>
          <line class="cls-3" x1="223.4" y1="641.5" x2="223.4" y2="638.2"/>
          <line class="cls-3" x1="321.6" y1="625" x2="321.6" y2="621.7"/>
          <line class="cls-3" x1="321.6" y1="623.4" x2="190.4" y2="623.4"/>
          <line class="cls-3" x1="190.4" y1="625" x2="190.4" y2="621.7"/>
          <text class="cls-6" transform="translate(278.4 676.1)"><tspan x="0" y="0">Ref.</tspan></text>
          <text class="cls-6" transform="translate(302.1 659.6)"><tspan x="0" y="0">RR = 1.16 [0.90–1.51]</tspan></text>
          <text class="cls-6" transform="translate(278.3 643.1)"><tspan x="0" y="0">RR = 0.93 [0.61–1.43]</tspan></text>
          <text class="cls-6" transform="translate(265 626.6)"><tspan x="0" y="0">RR = 0.83 [0.45–1.51]</tspan></text>
          <line class="cls-2" x1="276.7" y1="682.8" x2="276.7" y2="613.5"/>
        </g>
      </g>
      <g class="cls-13">
        <text class="cls-7" transform="translate(100 122.2) rotate(-90)"><tspan x="0" y="0">Substance Use Disorder</tspan></text>
      </g>
      <g class="cls-14">
        <text class="cls-7" transform="translate(100 197.2) rotate(-90)"><tspan x="0" y="0">Alcohol Dependence</tspan></text>
      </g>
      <g class="cls-22">
        <text class="cls-7" transform="translate(100 285.3) rotate(-90)"><tspan x="0" y="0">Cannabis Dependence</tspan></text>
      </g>
      <g class="cls-23">
        <text class="cls-7" transform="translate(100 352.5) rotate(-90)"><tspan x="0" y="0">Opioid Disorder</tspan></text>
      </g>
      <g class="cls-24">
        <text class="cls-7" transform="translate(100 460.5) rotate(-90)"><tspan x="0" y="0">Mood [Affective] Disorder</tspan></text>
      </g>
      <g class="cls-20">
        <text class="cls-7" transform="translate(100 522.3) rotate(-90)"><tspan x="0" y="0">Anxiety Disorder</tspan></text>
      </g>
      <g class="cls-21">
        <text class="cls-7" transform="translate(100 579.4) rotate(-90)"><tspan x="0" y="0">ADHD</tspan></text>
      </g>
      <g class="cls-18">
        <text class="cls-7" transform="translate(100 673.8) rotate(-90)"><tspan x="0" y="0">Psychosis</tspan></text>
      </g>
      <g class="cls-19">
        <g>
          <text class="cls-5" transform="translate(194.5 696)"><tspan x="0" y="0">0.5</tspan></text>
          <text class="cls-5" transform="translate(269.5 696)"><tspan x="0" y="0">1.0</tspan></text>
          <text class="cls-5" transform="translate(344.5 696)"><tspan x="0" y="0">2.0</tspan></text>
          <text class="cls-5" transform="translate(419.5 696)"><tspan x="0" y="0">4.0</tspan></text>
          <text class="cls-5" transform="translate(494.5 696)"><tspan x="0" y="0">8.0</tspan></text>
          <text class="cls-5" transform="translate(32.5 90.5)"><tspan x="0" y="0">Reference</tspan></text>
          <text class="cls-5" transform="translate(12.2 74)"><tspan x="0" y="0">1x</tspan><tspan class="cls-12" x="11" y="0"> </tspan><tspan x="19.6" y="0">Concussion</tspan></text>
          <text class="cls-5" transform="translate(12.2 57.5)"><tspan x="0" y="0">2x</tspan><tspan class="cls-12" x="11" y="0"> </tspan><tspan x="19.6" y="0">Concussion</tspan></text>
          <text class="cls-5" transform="translate(12.2 41)"><tspan x="0" y="0">3x</tspan><tspan class="cls-12" x="11" y="0"> </tspan><tspan x="19.6" y="0">Concussion</tspan></text>
          <text class="cls-5" transform="translate(32.5 174.3)"><tspan x="0" y="0">Reference</tspan></text>
          <text class="cls-5" transform="translate(12.2 157.8)"><tspan x="0" y="0">1x</tspan><tspan class="cls-12" x="11" y="0"> </tspan><tspan x="19.6" y="0">Concussion</tspan></text>
          <text class="cls-5" transform="translate(12.2 141.2)"><tspan x="0" y="0">2x</tspan><tspan class="cls-12" x="11" y="0"> </tspan><tspan x="19.6" y="0">Concussion</tspan></text>
          <text class="cls-5" transform="translate(12.2 124.8)"><tspan x="0" y="0">3x</tspan><tspan class="cls-12" x="11" y="0"> </tspan><tspan x="19.6" y="0">Concussion</tspan></text>
          <text class="cls-5" transform="translate(32.5 258)"><tspan x="0" y="0">Reference</tspan></text>
          <text class="cls-5" transform="translate(12.2 241.5)"><tspan x="0" y="0">1x</tspan><tspan class="cls-12" x="11" y="0"> </tspan><tspan x="19.6" y="0">Concussion</tspan></text>
          <text class="cls-5" transform="translate(12.2 225)"><tspan x="0" y="0">2x</tspan><tspan class="cls-12" x="11" y="0"> </tspan><tspan x="19.6" y="0">Concussion</tspan></text>
          <text class="cls-5" transform="translate(12.2 208.5)"><tspan x="0" y="0">3x</tspan><tspan class="cls-12" x="11" y="0"> </tspan><tspan x="19.6" y="0">Concussion</tspan></text>
          <text class="cls-5" transform="translate(32.5 341.7)"><tspan x="0" y="0">Reference</tspan></text>
          <text class="cls-5" transform="translate(12.2 325.2)"><tspan x="0" y="0">1x</tspan><tspan class="cls-12" x="11" y="0"> </tspan><tspan x="19.6" y="0">Concussion</tspan></text>
          <text class="cls-5" transform="translate(12.2 308.7)"><tspan x="0" y="0">2x</tspan><tspan class="cls-12" x="11" y="0"> </tspan><tspan x="19.6" y="0">Concussion</tspan></text>
          <text class="cls-5" transform="translate(12.2 292.2)"><tspan x="0" y="0">3x</tspan><tspan class="cls-12" x="11" y="0"> </tspan><tspan x="19.6" y="0">Concussion</tspan></text>
          <text class="cls-5" transform="translate(32.5 425.4)"><tspan x="0" y="0">Reference</tspan></text>
          <text class="cls-5" transform="translate(12.2 408.9)"><tspan x="0" y="0">1x</tspan><tspan class="cls-12" x="11" y="0"> </tspan><tspan x="19.6" y="0">Concussion</tspan></text>
          <text class="cls-5" transform="translate(12.2 392.4)"><tspan x="0" y="0">2x</tspan><tspan class="cls-12" x="11" y="0"> </tspan><tspan x="19.6" y="0">Concussion</tspan></text>
          <text class="cls-5" transform="translate(12.2 375.9)"><tspan x="0" y="0">3x</tspan><tspan class="cls-12" x="11" y="0"> </tspan><tspan x="19.6" y="0">Concussion</tspan></text>
          <text class="cls-5" transform="translate(32.5 509.2)"><tspan x="0" y="0">Reference</tspan></text>
          <text class="cls-5" transform="translate(12.2 492.7)"><tspan x="0" y="0">1x</tspan><tspan class="cls-12" x="11" y="0"> </tspan><tspan x="19.6" y="0">Concussion</tspan></text>
          <text class="cls-5" transform="translate(12.2 476.1)"><tspan x="0" y="0">2x</tspan><tspan class="cls-12" x="11" y="0"> </tspan><tspan x="19.6" y="0">Concussion</tspan></text>
          <text class="cls-5" transform="translate(12.2 459.6)"><tspan x="0" y="0">3x</tspan><tspan class="cls-12" x="11" y="0"> </tspan><tspan x="19.6" y="0">Concussion</tspan></text>
          <text class="cls-5" transform="translate(32.5 592.9)"><tspan x="0" y="0">Reference</tspan></text>
          <text class="cls-5" transform="translate(12.2 576.4)"><tspan x="0" y="0">1x</tspan><tspan class="cls-12" x="11" y="0"> </tspan><tspan x="19.6" y="0">Concussion</tspan></text>
          <text class="cls-5" transform="translate(12.2 559.9)"><tspan x="0" y="0">2x</tspan><tspan class="cls-12" x="11" y="0"> </tspan><tspan x="19.6" y="0">Concussion</tspan></text>
          <text class="cls-5" transform="translate(12.2 543.4)"><tspan x="0" y="0">3x</tspan><tspan class="cls-12" x="11" y="0"> </tspan><tspan x="19.6" y="0">Concussion</tspan></text>
          <text class="cls-5" transform="translate(32.5 676.6)"><tspan x="0" y="0">Reference</tspan></text>
          <text class="cls-5" transform="translate(12.2 660.1)"><tspan x="0" y="0">1x</tspan><tspan class="cls-12" x="11" y="0"> </tspan><tspan x="19.6" y="0">Concussion</tspan></text>
          <text class="cls-5" transform="translate(12.2 643.6)"><tspan x="0" y="0">2x</tspan><tspan class="cls-12" x="11" y="0"> </tspan><tspan x="19.6" y="0">Concussion</tspan></text>
          <text class="cls-5" transform="translate(12.2 627.1)"><tspan x="0" y="0">3x</tspan><tspan class="cls-12" x="11" y="0"> </tspan><tspan x="19.6" y="0">Concussion</tspan></text>
          <text class="cls-8" transform="translate(251.6 710.8)"><tspan x="0" y="0">Risk Ratio (log scale, 95% CI)</tspan></text>
          <text class="cls-9" transform="translate(106.3 17.6)"><tspan x="0" y="0">Forest Plot of 5-Year Risk Ratios by Outcome and Concussion Count</tspan></text>
        </g>
      </g>
    </g>
  </g>
</svg>