<?xml version="1.0" encoding="UTF-8"?>
<svg xmlns="http://www.w3.org/2000/svg" xmlns:xlink="http://www.w3.org/1999/xlink" version="1.1" viewBox="0 0 603.5 720">
  <defs>
    <style>
      .cls-1, .cls-2, .cls-3 {
        fill: none;
      }

      .cls-4 {
        fill: #4d4d4d;
      }

      .cls-4, .cls-5, .cls-6, .cls-7 {
        isolation: isolate;
      }

      .cls-4, .cls-5, .cls-7 {
        font-family: ArialMT, Arial;
      }

      .cls-4, .cls-6 {
        font-size: 10.4px;
      }

      .cls-5 {
        font-size: 9.1px;
      }

      .cls-2 {
        stroke: #7f7f7f;
        stroke-dasharray: 5.7 5.7;
      }

      .cls-2, .cls-3 {
        stroke-width: 1.1px;
      }

      .cls-2, .cls-3, .cls-8, .cls-9 {
        stroke-linejoin: round;
      }

      .cls-6 {
        fill: #1a1a1a;
        font-family: Arial-BoldMT, Arial;
        font-weight: 700;
      }

      .cls-7 {
        font-size: 13px;
      }

      .cls-10 {
        letter-spacing: .3em;
      }

      .cls-11 {
        letter-spacing: .3em;
      }

      .cls-12 {
        letter-spacing: .3em;
      }

      .cls-13 {
        letter-spacing: .4em;
      }

      .cls-14 {
        letter-spacing: .4em;
      }

      .cls-15 {
        letter-spacing: .3em;
      }

      .cls-16 {
        letter-spacing: .3em;
      }

      .cls-17 {
        letter-spacing: .3em;
      }

      .cls-18 {
        letter-spacing: .2em;
      }

      .cls-19 {
        letter-spacing: .2em;
      }

      .cls-20 {
        letter-spacing: .2em;
      }

      .cls-21 {
        letter-spacing: .2em;
      }

      .cls-22 {
        letter-spacing: .6em;
      }

      .cls-3, .cls-8 {
        stroke: #000;
      }

      .cls-23 {
        clip-path: url(#clippath-11);
      }

      .cls-24 {
        clip-path: url(#clippath-15);
      }

      .cls-25 {
        clip-path: url(#clippath-13);
      }

      .cls-26 {
        clip-path: url(#clippath-24);
      }

      .cls-27 {
        clip-path: url(#clippath-1);
      }

      .cls-28 {
        clip-path: url(#clippath-3);
      }

      .cls-29 {
        clip-path: url(#clippath-7);
      }

      .cls-30 {
        clip-path: url(#clippath-9);
      }

      .cls-31 {
        clip-path: url(#clippath-5);
      }

      .cls-8, .cls-9 {
        stroke-linecap: round;
        stroke-width: .7px;
      }

      .cls-9 {
        stroke: #fff;
      }

      .cls-32 {
        letter-spacing: .1em;
      }
    </style>
    <clipPath id="clippath-1">
      <rect class="cls-1" x="133.8" y="27.4" width="463.3" height="69.3"/>
    </clipPath>
    <clipPath id="clippath-3">
      <rect class="cls-1" x="133.8" y="111.1" width="463.3" height="69.3"/>
    </clipPath>
    <clipPath id="clippath-5">
      <rect class="cls-1" x="135.1" y="194.8" width="463.3" height="69.3"/>
    </clipPath>
    <clipPath id="clippath-7">
      <rect class="cls-1" x="133.8" y="278.6" width="463.3" height="69.3"/>
    </clipPath>
    <clipPath id="clippath-9">
      <rect class="cls-1" x="133.8" y="362.3" width="463.3" height="69.3"/>
    </clipPath>
    <clipPath id="clippath-11">
      <rect class="cls-1" x="133.8" y="446" width="463.3" height="69.3"/>
    </clipPath>
    <clipPath id="clippath-13">
      <rect class="cls-1" x="133.8" y="529.7" width="463.3" height="69.3"/>
    </clipPath>
    <clipPath id="clippath-15">
      <rect class="cls-1" x="133.8" y="613.5" width="463.3" height="69.3"/>
    </clipPath>
    <clipPath id="clippath-24">
      <rect class="cls-1" x="27.5" width="576" height="720"/>
    </clipPath>
  </defs>
  <!-- Generator: Adobe Illustrator 28.6.0, SVG Export Plug-In . SVG Version: 1.2.0 Build 709)  -->
  <g>
    <g id="Layer_1">
      <rect class="cls-1" x="27.5" width="576" height="720"/>
      <g class="cls-27">
        <g>
          <circle class="cls-9" cx="304.2" cy="86.8" r="3.6"/>
          <circle class="cls-8" cx="367" cy="37.3" r="3.6"/>
          <circle class="cls-8" cx="355.2" cy="53.8" r="3.6"/>
          <circle class="cls-8" cx="350.9" cy="70.3" r="3.6"/>
          <line class="cls-3" x1="304.2" y1="88.5" x2="304.2" y2="85.2"/>
          <line class="cls-3" x1="304.2" y1="86.8" x2="304.2" y2="86.8"/>
          <line class="cls-3" x1="304.2" y1="88.5" x2="304.2" y2="85.2"/>
          <line class="cls-3" x1="374.5" y1="39" x2="374.5" y2="35.7"/>
          <line class="cls-3" x1="374.5" y1="37.3" x2="359.5" y2="37.3"/>
          <line class="cls-3" x1="359.5" y1="39" x2="359.5" y2="35.7"/>
          <line class="cls-3" x1="367.2" y1="55.5" x2="367.2" y2="52.2"/>
          <line class="cls-3" x1="367.2" y1="53.8" x2="343.1" y2="53.8"/>
          <line class="cls-3" x1="343.1" y1="55.5" x2="343.1" y2="52.2"/>
          <line class="cls-3" x1="368" y1="72" x2="368" y2="68.7"/>
          <line class="cls-3" x1="368" y1="70.3" x2="333.9" y2="70.3"/>
          <line class="cls-3" x1="333.9" y1="72" x2="333.9" y2="68.7"/>
          <text class="cls-5" transform="translate(494.1 43)"><tspan x="0" y="0">1.79</tspan><tspan class="cls-14" x="17.7" y="0"> </tspan><tspan x="23.4" y="0">[1.67–1.91]</tspan></text>
          <text class="cls-5" transform="translate(494.1 57.9)"><tspan x="0" y="0">1.60</tspan><tspan class="cls-17" x="17.7" y="0"> </tspan><tspan x="22.8" y="0">[1.43–1.79]</tspan></text>
          <text class="cls-5" transform="translate(494.1 72.7)"><tspan x="0" y="0">1.54</tspan><tspan class="cls-17" x="17.7" y="0"> </tspan><tspan x="22.8" y="0">[1.32–1.80]</tspan></text>
          <line class="cls-2" x1="304.2" y1="96.7" x2="304.2" y2="27.4"/>
        </g>
      </g>
      <g class="cls-28">
        <circle class="cls-9" cx="303.3" cy="167.4" r="3.6"/>
        <circle class="cls-8" cx="359" cy="117.8" r="3.6"/>
        <circle class="cls-8" cx="333.7" cy="134.3" r="3.6"/>
        <circle class="cls-8" cx="321.9" cy="150.9" r="3.6"/>
        <line class="cls-3" x1="303.3" y1="169" x2="303.3" y2="165.7"/>
        <line class="cls-3" x1="303.3" y1="167.4" x2="303.3" y2="167.4"/>
        <line class="cls-3" x1="303.3" y1="169" x2="303.3" y2="165.7"/>
        <line class="cls-3" x1="377.2" y1="119.5" x2="377.2" y2="116.2"/>
        <line class="cls-3" x1="377.2" y1="117.8" x2="340.7" y2="117.8"/>
        <line class="cls-3" x1="340.7" y1="119.5" x2="340.7" y2="116.2"/>
        <line class="cls-3" x1="363.2" y1="136" x2="363.2" y2="132.7"/>
        <line class="cls-3" x1="363.2" y1="134.3" x2="304.2" y2="134.3"/>
        <line class="cls-3" x1="304.2" y1="136" x2="304.2" y2="132.7"/>
        <line class="cls-3" x1="363.3" y1="152.5" x2="363.3" y2="149.2"/>
        <line class="cls-3" x1="363.3" y1="150.9" x2="280.6" y2="150.9"/>
        <line class="cls-3" x1="280.6" y1="152.5" x2="280.6" y2="149.2"/>
        <text class="cls-5" transform="translate(495.1 118.9)"><tspan x="0" y="0">1.67</tspan><tspan class="cls-32" x="17.7" y="0"> </tspan><tspan x="21.4" y="0">[1.41–1.98]</tspan></text>
        <text class="cls-5" transform="translate(495.1 137.1)"><tspan x="0" y="0">1.32</tspan><tspan class="cls-32" x="17.7" y="0"> </tspan><tspan x="21.4" y="0">[1.01–1.74]</tspan></text>
        <text class="cls-5" transform="translate(495.1 155.1)"><tspan x="0" y="0">1.19</tspan><tspan class="cls-32" x="17.7" y="0"> </tspan><tspan x="21.4" y="0">[0.81–1.74]</tspan></text>
        <line class="cls-2" x1="303.3" y1="177.3" x2="303.3" y2="107.9"/>
        <text/>
      </g>
      <g class="cls-31">
        <circle class="cls-9" cx="303" cy="254.3" r="3.6"/>
        <circle class="cls-8" cx="422.3" cy="204.8" r="3.6"/>
        <circle class="cls-8" cx="418.2" cy="221.3" r="3.6"/>
        <circle class="cls-8" cx="434" cy="237.8" r="3.6"/>
        <line class="cls-3" x1="303" y1="255.9" x2="303" y2="252.6"/>
        <line class="cls-3" x1="303" y1="254.3" x2="303" y2="254.3"/>
        <line class="cls-3" x1="303" y1="255.9" x2="303" y2="252.6"/>
        <line class="cls-3" x1="435.7" y1="206.4" x2="435.7" y2="203.1"/>
        <line class="cls-3" x1="435.7" y1="204.8" x2="408.9" y2="204.8"/>
        <line class="cls-3" x1="408.9" y1="206.4" x2="408.9" y2="203.1"/>
        <line class="cls-3" x1="439.6" y1="222.9" x2="439.6" y2="219.6"/>
        <line class="cls-3" x1="439.6" y1="221.3" x2="396.7" y2="221.3"/>
        <line class="cls-3" x1="396.7" y1="222.9" x2="396.7" y2="219.6"/>
        <line class="cls-3" x1="464.4" y1="239.4" x2="464.4" y2="236.1"/>
        <line class="cls-3" x1="464.4" y1="237.8" x2="403.6" y2="237.8"/>
        <line class="cls-3" x1="403.6" y1="239.4" x2="403.6" y2="236.1"/>
        <text class="cls-5" transform="translate(496.4 202.2)"><tspan x="0" y="0">3.01</tspan><tspan class="cls-19" x="17.7" y="0"> </tspan><tspan x="22.2" y="0">[2.66–3.41]</tspan></text>
        <text class="cls-5" transform="translate(496.4 221.2)"><tspan x="0" y="0">2.90</tspan><tspan class="cls-19" x="17.7" y="0"> </tspan><tspan x="22.2" y="0">[2.38–3.54]</tspan></text>
        <text class="cls-5" transform="translate(496.9 238.6)"><tspan x="0" y="0">3.35</tspan><tspan class="cls-18" x="17.7" y="0"> </tspan><tspan x="22.2" y="0">[2.53–4.44]</tspan></text>
        <line class="cls-2" x1="303" y1="264.2" x2="303" y2="194.9"/>
      </g>
      <g class="cls-29">
        <circle class="cls-9" cx="304.2" cy="338" r="3.6"/>
        <circle class="cls-8" cx="337.2" cy="288.5" r="3.6"/>
        <circle class="cls-8" cx="298.7" cy="305" r="3.6"/>
        <circle class="cls-8" cx="206.8" cy="321.5" r="3.6"/>
        <line class="cls-3" x1="304.2" y1="339.6" x2="304.2" y2="336.3"/>
        <line class="cls-3" x1="304.2" y1="338" x2="304.2" y2="338"/>
        <line class="cls-3" x1="304.2" y1="339.6" x2="304.2" y2="336.3"/>
        <line class="cls-3" x1="366.6" y1="290.1" x2="366.6" y2="286.8"/>
        <line class="cls-3" x1="366.6" y1="288.5" x2="307.7" y2="288.5"/>
        <line class="cls-3" x1="307.7" y1="290.1" x2="307.7" y2="286.8"/>
        <line class="cls-3" x1="346.7" y1="306.6" x2="346.7" y2="303.3"/>
        <line class="cls-3" x1="346.7" y1="305" x2="250.7" y2="305"/>
        <line class="cls-3" x1="250.7" y1="306.6" x2="250.7" y2="303.3"/>
        <line class="cls-3" x1="276.4" y1="323.1" x2="276.4" y2="319.8"/>
        <line class="cls-3" x1="276.4" y1="321.5" x2="137.1" y2="321.5"/>
        <line class="cls-3" x1="137.1" y1="323.1" x2="137.1" y2="319.8"/>
        <text class="cls-5" transform="translate(495.1 288.1)"><tspan x="0" y="0">1.36</tspan><tspan class="cls-21" x="17.7" y="0"> </tspan><tspan x="22.3" y="0">[1.03–1.78]</tspan></text>
        <text class="cls-5" transform="translate(495.1 306.3)"><tspan x="0" y="0">0.95</tspan><tspan class="cls-20" x="17.7" y="0"> </tspan><tspan x="22.3" y="0">[0.61–1.48]</tspan></text>
        <text class="cls-5" transform="translate(495.1 326)"><tspan x="0" y="0">0.41</tspan><tspan class="cls-21" x="17.7" y="0"> </tspan><tspan x="22.3" y="0">[0.21–0.77]</tspan></text>
        <line class="cls-2" x1="304.2" y1="347.9" x2="304.2" y2="278.6"/>
      </g>
      <g class="cls-30">
        <g>
          <circle class="cls-9" cx="304.2" cy="421.7" r="3.6"/>
          <circle class="cls-8" cx="401.9" cy="372.2" r="3.6"/>
          <circle class="cls-8" cx="414.2" cy="388.7" r="3.6"/>
          <circle class="cls-8" cx="413" cy="405.2" r="3.6"/>
          <line class="cls-3" x1="304.2" y1="423.4" x2="304.2" y2="420.1"/>
          <line class="cls-3" x1="304.2" y1="421.7" x2="304.2" y2="421.7"/>
          <line class="cls-3" x1="304.2" y1="423.4" x2="304.2" y2="420.1"/>
          <line class="cls-3" x1="407.7" y1="373.9" x2="407.7" y2="370.5"/>
          <line class="cls-3" x1="407.7" y1="372.2" x2="396.1" y2="372.2"/>
          <line class="cls-3" x1="396.1" y1="373.9" x2="396.1" y2="370.5"/>
          <line class="cls-3" x1="423.1" y1="390.4" x2="423.1" y2="387"/>
          <line class="cls-3" x1="423.1" y1="388.7" x2="405.4" y2="388.7"/>
          <line class="cls-3" x1="405.4" y1="390.4" x2="405.4" y2="387"/>
          <line class="cls-3" x1="425.6" y1="406.9" x2="425.6" y2="403.6"/>
          <line class="cls-3" x1="425.6" y1="405.2" x2="400.4" y2="405.2"/>
          <line class="cls-3" x1="400.4" y1="406.9" x2="400.4" y2="403.6"/>
          <text/>
          <text class="cls-5" transform="translate(495.5 373.4)"><tspan x="0" y="0">2.46</tspan><tspan class="cls-13" x="17.7" y="0"> </tspan><tspan x="23.6" y="0">[2.34–2.60]</tspan></text>
          <text class="cls-5" transform="translate(495.5 391.5)"><tspan x="0" y="0">2.76</tspan><tspan class="cls-13" x="17.7" y="0"> </tspan><tspan x="23.6" y="0">[2.55–3.00]</tspan></text>
          <text class="cls-5" transform="translate(495.5 408.9)"><tspan x="0" y="0">2.73</tspan><tspan class="cls-13" x="17.7" y="0"> </tspan><tspan x="23.6" y="0">[2.43–3.07]</tspan></text>
          <line class="cls-2" x1="304.2" y1="431.6" x2="304.2" y2="362.3"/>
        </g>
      </g>
      <g class="cls-23">
        <g>
          <circle class="cls-9" cx="304.2" cy="505.4" r="3.6"/>
          <circle class="cls-8" cx="424.4" cy="455.9" r="3.6"/>
          <circle class="cls-8" cx="428" cy="472.4" r="3.6"/>
          <circle class="cls-8" cx="432.1" cy="488.9" r="3.6"/>
          <line class="cls-3" x1="304.2" y1="507.1" x2="304.2" y2="503.8"/>
          <line class="cls-3" x1="304.2" y1="505.4" x2="304.2" y2="505.4"/>
          <line class="cls-3" x1="304.2" y1="507.1" x2="304.2" y2="503.8"/>
          <line class="cls-3" x1="429.6" y1="457.6" x2="429.6" y2="454.3"/>
          <line class="cls-3" x1="429.6" y1="455.9" x2="419.3" y2="455.9"/>
          <line class="cls-3" x1="419.3" y1="457.6" x2="419.3" y2="454.3"/>
          <line class="cls-3" x1="435.8" y1="474.1" x2="435.8" y2="470.8"/>
          <line class="cls-3" x1="435.8" y1="472.4" x2="420.2" y2="472.4"/>
          <line class="cls-3" x1="420.2" y1="474.1" x2="420.2" y2="470.8"/>
          <line class="cls-3" x1="443.1" y1="490.6" x2="443.1" y2="487.3"/>
          <line class="cls-3" x1="443.1" y1="488.9" x2="421.1" y2="488.9"/>
          <line class="cls-3" x1="421.1" y1="490.6" x2="421.1" y2="487.3"/>
          <text class="cls-5" transform="translate(497.3 459.6)"><tspan x="0" y="0">3.04</tspan><tspan class="cls-15" x="17.7" y="0"> </tspan><tspan x="22.7" y="0">[2.89–3.18]</tspan></text>
          <text class="cls-5" transform="translate(497.3 476.9)"><tspan x="0" y="0">3.14</tspan><tspan class="cls-15" x="17.7" y="0"> </tspan><tspan x="22.7" y="0">[2.92–3.37]</tspan></text>
          <text class="cls-5" transform="translate(497.3 493.4)"><tspan x="0" y="0">3.26</tspan><tspan class="cls-15" x="17.7" y="0"> </tspan><tspan x="22.7" y="0">[2.94–3.61]</tspan></text>
          <line class="cls-2" x1="304.2" y1="515.3" x2="304.2" y2="446"/>
        </g>
      </g>
      <g class="cls-25">
        <circle class="cls-9" cx="304.2" cy="586" r="3.6"/>
        <circle class="cls-8" cx="366.5" cy="536.5" r="3.6"/>
        <circle class="cls-8" cx="371.2" cy="553" r="3.6"/>
        <circle class="cls-8" cx="374.3" cy="569.5" r="3.6"/>
        <line class="cls-3" x1="304.2" y1="587.6" x2="304.2" y2="584.3"/>
        <line class="cls-3" x1="304.2" y1="586" x2="304.2" y2="586"/>
        <line class="cls-3" x1="304.2" y1="587.6" x2="304.2" y2="584.3"/>
        <line class="cls-3" x1="374.7" y1="538.1" x2="374.7" y2="534.8"/>
        <line class="cls-3" x1="374.7" y1="536.5" x2="358.4" y2="536.5"/>
        <line class="cls-3" x1="358.4" y1="538.1" x2="358.4" y2="534.8"/>
        <line class="cls-3" x1="383.9" y1="554.6" x2="383.9" y2="551.3"/>
        <line class="cls-3" x1="383.9" y1="553" x2="358.6" y2="553"/>
        <line class="cls-3" x1="358.6" y1="554.6" x2="358.6" y2="551.3"/>
        <line class="cls-3" x1="392.5" y1="571.1" x2="392.5" y2="567.8"/>
        <line class="cls-3" x1="392.5" y1="569.5" x2="356.1" y2="569.5"/>
        <line class="cls-3" x1="356.1" y1="571.1" x2="356.1" y2="567.8"/>
        <text class="cls-5" transform="translate(497.7 537.4)"><tspan x="0" y="0">1.78</tspan><tspan class="cls-16" x="17.7" y="0"> </tspan><tspan x="22.8" y="0">[1.65–1.92]</tspan></text>
        <text class="cls-5" transform="translate(497.7 554.7)"><tspan x="0" y="0">1.86</tspan><tspan class="cls-16" x="17.7" y="0"> </tspan><tspan x="22.8" y="0">[1.65–2.09]</tspan></text>
        <text class="cls-5" transform="translate(497.7 572.1)"><tspan x="0" y="0">1.91</tspan><tspan class="cls-16" x="17.7" y="0"> </tspan><tspan x="22.8" y="0">[1.61–2.26]</tspan></text>
        <line class="cls-2" x1="304.2" y1="595.9" x2="304.2" y2="526.6"/>
      </g>
      <g class="cls-24">
        <circle class="cls-9" cx="304.2" cy="672.9" r="3.6"/>
        <circle class="cls-8" cx="320.7" cy="623.4" r="3.6"/>
        <circle class="cls-8" cx="296.9" cy="639.9" r="3.6"/>
        <circle class="cls-8" cx="283.6" cy="656.4" r="3.6"/>
        <line class="cls-3" x1="304.2" y1="674.5" x2="304.2" y2="671.2"/>
        <line class="cls-3" x1="304.2" y1="672.9" x2="304.2" y2="672.9"/>
        <line class="cls-3" x1="304.2" y1="674.5" x2="304.2" y2="671.2"/>
        <line class="cls-3" x1="348.9" y1="625" x2="348.9" y2="621.7"/>
        <line class="cls-3" x1="348.9" y1="623.4" x2="292.6" y2="623.4"/>
        <line class="cls-3" x1="292.6" y1="625" x2="292.6" y2="621.7"/>
        <line class="cls-3" x1="342.9" y1="641.5" x2="342.9" y2="638.2"/>
        <line class="cls-3" x1="342.9" y1="639.9" x2="250.9" y2="639.9"/>
        <line class="cls-3" x1="250.9" y1="641.5" x2="250.9" y2="638.2"/>
        <line class="cls-3" x1="349.2" y1="658" x2="349.2" y2="654.7"/>
        <line class="cls-3" x1="349.2" y1="656.4" x2="217.9" y2="656.4"/>
        <line class="cls-3" x1="217.9" y1="658" x2="217.9" y2="654.7"/>
        <text class="cls-5" transform="translate(498.7 627)"><tspan x="0" y="0">1.16</tspan><tspan class="cls-11" x="17.7" y="0"> </tspan><tspan x="23.1" y="0">[0.90–1.51]</tspan></text>
        <text class="cls-5" transform="translate(499.4 645.1)"><tspan x="0" y="0">0.93</tspan><tspan class="cls-12" x="17.7" y="0"> </tspan><tspan x="23.1" y="0">[0.61–1.43]</tspan></text>
        <text class="cls-5" transform="translate(498.7 661.7)"><tspan x="0" y="0">0.83</tspan><tspan class="cls-10" x="17.7" y="0"> </tspan><tspan x="23.1" y="0">[0.45–1.51]</tspan></text>
        <line class="cls-2" x1="304.2" y1="682.8" x2="304.2" y2="613.5"/>
      </g>
      <rect class="cls-1" x="79.6" y="-7.3" width="20" height="69.3" transform="translate(62 117) rotate(-89.9)"/>
      <text class="cls-6" transform="translate(5.4 29.4) rotate(.1)"><tspan x="0" y="0">General Substance Use (F10-F19) </tspan></text>
      <rect class="cls-1" x="73.3" y="72.1" width="20" height="69.3" transform="translate(-23.7 189.8) rotate(-89.9)"/>
      <text class="cls-6" transform="translate(7.7 110.5) rotate(.1)"><tspan x="0" y="0">Alcohol (F10)</tspan></text>
      <rect class="cls-1" x="75.3" y="155.9" width="20" height="69.3" transform="translate(-105.4 275.4) rotate(-89.9)"/>
      <text class="cls-6" transform="translate(5.4 194.2) rotate(.1)"><tspan x="0" y="0">Cannabis (F12)</tspan></text>
      <rect class="cls-1" x="59.8" y="239.6" width="20" height="69.3" transform="translate(-204.6 343.4) rotate(-89.9)"/>
      <text class="cls-6" transform="translate(6.4 278) rotate(.1)"><tspan x="0" y="0">Opioid (F11)</tspan></text>
      <rect class="cls-1" x="85.4" y="323.3" width="20" height="69.3" transform="translate(-262.8 452.5) rotate(-89.9)"/>
      <text class="cls-6" transform="translate(7.7 361.6) rotate(.1)"><tspan x="0" y="0">Mood Disorder (F30-F39)</tspan></text>
      <rect class="cls-1" x="63.3" y="407" width="20" height="69.3" transform="translate(-368.6 513.9) rotate(-89.9)"/>
      <text class="cls-6" transform="translate(7.5 445.4) rotate(.1)"><tspan x="0" y="0">Anxiety (F40-F48)</tspan></text>
      <rect class="cls-1" x="14.5" y="490.9" width="20" height="69.3" transform="translate(-501.1 548.8) rotate(-89.9)"/>
      <text class="cls-6" transform="translate(9.5 529.2) rotate(.1)"><tspan x="0" y="0">ADHD (F90)</tspan></text>
      <rect class="cls-1" x="26.6" y="574.6" width="20" height="69.3" transform="translate(-572.7 644.4) rotate(-89.9)"/>
      <text class="cls-6" transform="translate(10.9 612.9) rotate(.1)"><tspan x="0" y="0">Psychosis (F29)</tspan></text>
      <g class="cls-26">
        <text class="cls-4" transform="translate(222 696)"><tspan x="0" y="0">0.5</tspan></text>
        <text class="cls-4" transform="translate(297 696)"><tspan x="0" y="0">1.0</tspan></text>
        <text class="cls-4" transform="translate(372 696)"><tspan x="0" y="0">2.0</tspan></text>
        <text class="cls-4" transform="translate(447 696)"><tspan x="0" y="0">4.0</tspan></text>
        <text class="cls-4" transform="translate(522.1 696)"><tspan x="0" y="0">8.0</tspan></text>
        <text class="cls-4" transform="translate(60 90.5)"><tspan x="0" y="0">Reference</tspan></text>
        <text class="cls-4" transform="translate(39.8 74)"><tspan x="0" y="0">3x</tspan><tspan class="cls-22" x="11" y="0"> </tspan><tspan x="19.6" y="0">Concussion</tspan></text>
        <text class="cls-4" transform="translate(39.8 57.5)"><tspan x="0" y="0">2x</tspan><tspan class="cls-22" x="11" y="0"> </tspan><tspan x="19.6" y="0">Concussion</tspan></text>
        <text class="cls-4" transform="translate(39.8 41)"><tspan x="0" y="0">1x</tspan><tspan class="cls-22" x="11" y="0"> </tspan><tspan x="19.6" y="0">Concussion</tspan></text>
        <text class="cls-4" transform="translate(60 174.3)"><tspan x="0" y="0">Reference</tspan></text>
        <text class="cls-4" transform="translate(39.8 157.8)"><tspan x="0" y="0">3x</tspan><tspan class="cls-22" x="11" y="0"> </tspan><tspan x="19.6" y="0">Concussion</tspan></text>
        <text class="cls-4" transform="translate(39.8 141.2)"><tspan x="0" y="0">2x</tspan><tspan class="cls-22" x="11" y="0"> </tspan><tspan x="19.6" y="0">Concussion</tspan></text>
        <text class="cls-4" transform="translate(39.8 124.8)"><tspan x="0" y="0">1x</tspan><tspan class="cls-22" x="11" y="0"> </tspan><tspan x="19.6" y="0">Concussion</tspan></text>
        <text class="cls-4" transform="translate(60 258)"><tspan x="0" y="0">Reference</tspan></text>
        <text class="cls-4" transform="translate(39.8 241.5)"><tspan x="0" y="0">3x</tspan><tspan class="cls-22" x="11" y="0"> </tspan><tspan x="19.6" y="0">Concussion</tspan></text>
        <text class="cls-4" transform="translate(39.8 225)"><tspan x="0" y="0">2x</tspan><tspan class="cls-22" x="11" y="0"> </tspan><tspan x="19.6" y="0">Concussion</tspan></text>
        <text class="cls-4" transform="translate(39.8 208.5)"><tspan x="0" y="0">1x</tspan><tspan class="cls-22" x="11" y="0"> </tspan><tspan x="19.6" y="0">Concussion</tspan></text>
        <text class="cls-4" transform="translate(60 341.7)"><tspan x="0" y="0">Reference</tspan></text>
        <text class="cls-4" transform="translate(39.8 325.2)"><tspan x="0" y="0">3x</tspan><tspan class="cls-22" x="11" y="0"> </tspan><tspan x="19.6" y="0">Concussion</tspan></text>
        <text class="cls-4" transform="translate(39.8 308.7)"><tspan x="0" y="0">2x</tspan><tspan class="cls-22" x="11" y="0"> </tspan><tspan x="19.6" y="0">Concussion</tspan></text>
        <text class="cls-4" transform="translate(39.8 292.2)"><tspan x="0" y="0">1x</tspan><tspan class="cls-22" x="11" y="0"> </tspan><tspan x="19.6" y="0">Concussion</tspan></text>
        <text class="cls-4" transform="translate(60 425.4)"><tspan x="0" y="0">Reference</tspan></text>
        <text class="cls-4" transform="translate(39.8 408.9)"><tspan x="0" y="0">3x</tspan><tspan class="cls-22" x="11" y="0"> </tspan><tspan x="19.6" y="0">Concussion</tspan></text>
        <text class="cls-4" transform="translate(39.8 392.4)"><tspan x="0" y="0">2x</tspan><tspan class="cls-22" x="11" y="0"> </tspan><tspan x="19.6" y="0">Concussion</tspan></text>
        <text class="cls-4" transform="translate(39.8 375.9)"><tspan x="0" y="0">1x</tspan><tspan class="cls-22" x="11" y="0"> </tspan><tspan x="19.6" y="0">Concussion</tspan></text>
        <text class="cls-4" transform="translate(60 509.2)"><tspan x="0" y="0">Reference</tspan></text>
        <text class="cls-4" transform="translate(39.8 492.7)"><tspan x="0" y="0">3x</tspan><tspan class="cls-22" x="11" y="0"> </tspan><tspan x="19.6" y="0">Concussion</tspan></text>
        <text class="cls-4" transform="translate(39.8 476.1)"><tspan x="0" y="0">2x</tspan><tspan class="cls-22" x="11" y="0"> </tspan><tspan x="19.6" y="0">Concussion</tspan></text>
        <text class="cls-4" transform="translate(39.8 459.6)"><tspan x="0" y="0">1x</tspan><tspan class="cls-22" x="11" y="0"> </tspan><tspan x="19.6" y="0">Concussion</tspan></text>
        <text class="cls-4" transform="translate(60 592.9)"><tspan x="0" y="0">Reference</tspan></text>
        <text class="cls-4" transform="translate(39.8 576.4)"><tspan x="0" y="0">3x</tspan><tspan class="cls-22" x="11" y="0"> </tspan><tspan x="19.6" y="0">Concussion</tspan></text>
        <text class="cls-4" transform="translate(39.8 559.9)"><tspan x="0" y="0">2x</tspan><tspan class="cls-22" x="11" y="0"> </tspan><tspan x="19.6" y="0">Concussion</tspan></text>
        <text class="cls-4" transform="translate(39.8 543.4)"><tspan x="0" y="0">1x</tspan><tspan class="cls-22" x="11" y="0"> </tspan><tspan x="19.6" y="0">Concussion</tspan></text>
        <text class="cls-4" transform="translate(60 676.6)"><tspan x="0" y="0">Reference</tspan></text>
        <text class="cls-4" transform="translate(39.8 660.1)"><tspan x="0" y="0">3x</tspan><tspan class="cls-22" x="11" y="0"> </tspan><tspan x="19.6" y="0">Concussion</tspan></text>
        <text class="cls-4" transform="translate(39.8 643.6)"><tspan x="0" y="0">2x</tspan><tspan class="cls-22" x="11" y="0"> </tspan><tspan x="19.6" y="0">Concussion</tspan></text>
        <text class="cls-4" transform="translate(39.8 627.1)"><tspan x="0" y="0">1x</tspan><tspan class="cls-22" x="11" y="0"> </tspan><tspan x="19.6" y="0">Concussion</tspan></text>
        <text class="cls-7" transform="translate(229.2 712.5)"><tspan x="0" y="0">Risk Ratio (log scale, 95% CI)</tspan></text>
      </g>
    </g>
  </g>
</svg>